<svg width="16" height="16" viewBox="0 0 16 16" fill="current" xmlns="http://www.w3.org/2000/svg">
<path d="M14.7375 5.39672L14.7375 5.39671C14.1442 2.67013 10.8729 1.58676 8.85672 3.38641L8.85561 3.3874C8.74269 3.48759 8.64554 3.59122 8.5296 3.71491C8.47701 3.771 8.42056 3.83123 8.35702 3.89712L7.99743 4.27003L7.6375 3.89746C7.57207 3.82973 7.51433 3.76813 7.46069 3.71091C7.3463 3.58888 7.25055 3.48674 7.13859 3.38739L7.13745 3.38638C5.12127 1.58648 1.85001 2.66974 1.25632 5.39675L1.25488 5.40338L1.25483 5.40337C0.97082 6.62776 1.1834 7.94664 1.83341 9.00761C2.45536 9.95639 3.33187 10.8003 4.31442 11.6223C4.77951 12.0113 5.26151 12.39 5.74731 12.7717C5.77459 12.7931 5.80188 12.8146 5.82918 12.836C6.34016 13.2375 6.8543 13.643 7.34127 14.0577C7.71345 14.3746 8.28077 14.3746 8.65294 14.0577C9.13984 13.6429 9.65391 13.2374 10.1648 12.836C10.1931 12.8138 10.2213 12.7916 10.2495 12.7694C10.7343 12.3885 11.2154 12.0106 11.6796 11.6224C12.6641 10.7988 13.5423 9.95323 14.1646 9.00176L14.7375 5.39672ZM14.7375 5.39672L14.739 5.40337M14.7375 5.39672L14.739 5.40337M14.739 5.40337C15.0259 6.64018 14.8365 7.97422 14.1647 9.0017L14.739 5.40337Z" stroke="current"/>
</svg>
