<svg width="12" height="12" viewBox="0 0 12 12" fill="none" xmlns="http://www.w3.org/2000/svg">
<path fill-rule="evenodd" clip-rule="evenodd" d="M4.08349 1.3595C4.25515 1.04279 4.50915 0.778322 4.81868 0.594032C5.1282 0.409742 5.48176 0.312473 5.84199 0.3125H6.15699C6.51723 0.312473 6.87078 0.409742 7.18031 0.594032C7.48984 0.778322 7.74384 1.04279 7.91549 1.3595C8.73549 1.37625 9.38074 1.40175 9.85149 1.4255C10.519 1.459 11.1925 1.8205 11.3985 2.528C11.4252 2.61975 11.45 2.71725 11.472 2.82C11.607 3.451 11.1277 3.96625 10.5342 4.01625C9.77024 4.081 8.38099 4.15375 5.99374 4.15375C3.60699 4.15375 2.21774 4.081 1.45374 4.01625C0.864743 3.9665 0.369243 3.448 0.539243 2.811C0.586243 2.63425 0.644243 2.4735 0.704993 2.331C0.956993 1.74075 1.55199 1.462 2.12999 1.43C2.58324 1.405 3.23074 1.3775 4.08349 1.3595ZM1.39049 4.76375C1.33221 4.75876 1.27422 4.75083 1.21674 4.74C1.42199 7.75175 1.61474 9.3745 1.73424 10.1835C1.81724 10.7463 2.19674 11.2378 2.79074 11.3805C3.40199 11.5273 4.42824 11.6873 5.99999 11.6873C7.57149 11.6873 8.59799 11.5273 9.20924 11.3805C9.80299 11.2378 10.1827 10.7463 10.2657 10.1835C10.3852 9.37425 10.578 7.751 10.7832 4.738C10.7218 4.74982 10.6598 4.75841 10.5975 4.76375C9.80624 4.8305 8.39449 4.90375 5.99374 4.90375C3.59324 4.90375 2.18174 4.8305 1.39049 4.76375ZM4.99699 6.7625C4.99099 6.69675 4.97203 6.63284 4.94119 6.57445C4.91036 6.51607 4.86827 6.46437 4.81735 6.42234C4.76643 6.38031 4.70769 6.34878 4.64452 6.32958C4.58136 6.31037 4.51501 6.30386 4.44931 6.31043C4.38361 6.317 4.31987 6.33652 4.26175 6.36785C4.20364 6.39919 4.15231 6.44172 4.11072 6.49301C4.06913 6.54429 4.03811 6.6033 4.01945 6.66663C4.00079 6.72996 3.99486 6.79636 4.00199 6.862L4.25199 9.362C4.25799 9.42775 4.27696 9.49166 4.30779 9.55005C4.33862 9.60843 4.38072 9.66013 4.43163 9.70216C4.48255 9.74419 4.54129 9.77572 4.60446 9.79492C4.66763 9.81413 4.73398 9.82064 4.79967 9.81407C4.86537 9.8075 4.92912 9.78798 4.98723 9.75665C5.04535 9.72531 5.09668 9.68278 5.13827 9.63149C5.17985 9.58021 5.21087 9.5212 5.22954 9.45787C5.2482 9.39454 5.25413 9.32814 5.24699 9.2625L4.99699 6.7625ZM7.54949 6.315C7.48416 6.30843 7.41817 6.3148 7.3553 6.33373C7.29243 6.35267 7.2339 6.3838 7.18306 6.42536C7.13222 6.46691 7.09006 6.51807 7.059 6.57592C7.02793 6.63377 7.00856 6.69717 7.00199 6.7625L6.75199 9.2625C6.7451 9.32801 6.75121 9.39423 6.76998 9.45737C6.78876 9.52051 6.81983 9.57932 6.8614 9.63041C6.90297 9.68151 6.95423 9.72389 7.01223 9.75511C7.07023 9.78634 7.13383 9.80579 7.19937 9.81237C7.26491 9.81894 7.33111 9.81249 7.39415 9.7934C7.45719 9.77431 7.51584 9.74295 7.56673 9.70113C7.61762 9.6593 7.65974 9.60783 7.69068 9.54967C7.72161 9.49152 7.74075 9.42782 7.74699 9.36225L7.99699 6.86225C8.00356 6.79692 7.99719 6.73093 7.97826 6.66806C7.95932 6.60519 7.92819 6.54666 7.88664 6.49582C7.84508 6.44498 7.79392 6.40282 7.73607 6.37175C7.67823 6.34068 7.61483 6.32157 7.54949 6.315Z" fill="#D80303"/>
</svg>
