<svg width="12" height="12" viewBox="0 0 12 12" fill="none" xmlns="http://www.w3.org/2000/svg">
<g clip-path="url(#clip0_42_626)">
<path fill-rule="evenodd" clip-rule="evenodd" d="M6.88505 0.821072C7.45155 0.254822 8.34804 -0.0269277 9.11905 0.465822C9.4978 0.707822 9.95154 1.05582 10.449 1.55282C10.946 2.04982 11.294 2.50357 11.536 2.88207C12.0293 3.65332 11.7473 4.55007 11.1805 5.11657L11.0143 5.28282C10.622 4.66282 10.0113 3.85032 9.07804 2.91732C8.14805 1.98782 7.33829 1.37857 6.71929 0.986822L6.88505 0.821072ZM0.660045 7.06957C0.540924 7.2333 0.465702 7.42479 0.441545 7.62582C0.386545 8.09932 0.321295 9.10332 0.448295 10.7558C0.464261 10.9617 0.553285 11.155 0.699298 11.301C0.845312 11.447 1.0387 11.5359 1.24454 11.5518C2.89704 11.6788 3.90154 11.6133 4.37504 11.5586C4.57587 11.5344 4.76718 11.4593 4.93079 11.3403C4.49779 10.7378 3.82779 9.88132 2.97229 9.02607C2.11804 8.17207 1.26279 7.50257 0.660045 7.06957ZM8.54754 3.44782C9.5188 4.41857 10.115 5.24232 10.4695 5.82757L5.47829 10.8176C5.02729 10.1968 4.35379 9.34682 3.50254 8.49557C2.65254 7.64582 1.80354 6.97307 1.18279 6.52207L6.17429 1.53157C6.75879 1.88582 7.57955 2.48007 8.54754 3.44782Z" fill="#333333"/>
</g>
<defs>
<clipPath id="clip0_42_626">
<rect width="12" height="12" fill="white"/>
</clipPath>
</defs>
</svg>
