<svg width="16" height="16" viewBox="0 0 16 16" fill="current" xmlns="http://www.w3.org/2000/svg">
<path d="M8.00008 0.833496C5.83741 0.833496 4.49475 1.02583 3.69708 1.2135C2.86208 1.4105 2.39108 2.13316 2.33441 2.9005C2.25975 3.90516 2.16675 5.7455 2.16675 8.66683C2.16675 10.9862 2.20075 12.5075 2.24408 13.5055C2.27241 14.1512 2.54875 14.7098 3.08908 14.9605C3.61708 15.2052 4.22641 15.0748 4.75341 14.7288L7.17708 13.1382C7.42157 12.9777 7.70764 12.8922 8.00008 12.8922C8.29252 12.8922 8.57859 12.9777 8.82308 13.1382L11.2464 14.7288C11.7737 15.0748 12.3831 15.2052 12.9111 14.9605C13.4511 14.7098 13.7277 14.1512 13.7561 13.5055C13.7994 12.5075 13.8334 10.9862 13.8334 8.66683C13.8334 5.7455 13.7401 3.90516 13.6657 2.9005C13.6091 2.13316 13.1381 1.4105 12.3031 1.21383C11.5054 1.02583 10.1627 0.833496 8.00008 0.833496Z" fill="current"/>
</svg>
