<svg width="24" height="24" viewBox="0 0 24 24" fill="current" xmlns="http://www.w3.org/2000/svg">
<path fill-rule="evenodd" clip-rule="evenodd" d="M1 12.25C1 11.388 1.34241 10.5614 1.9519 9.9519C2.5614 9.34241 3.38805 9 4.25 9C5.11195 9 5.9386 9.34241 6.5481 9.9519C7.15759 10.5614 7.5 11.388 7.5 12.25C7.5 13.112 7.15759 13.9386 6.5481 14.5481C5.9386 15.1576 5.11195 15.5 4.25 15.5C3.38805 15.5 2.5614 15.1576 1.9519 14.5481C1.34241 13.9386 1 13.112 1 12.25ZM12.25 9C11.388 9 10.5614 9.34241 9.9519 9.9519C9.34241 10.5614 9 11.388 9 12.25C9 13.112 9.34241 13.9386 9.9519 14.5481C10.5614 15.1576 11.388 15.5 12.25 15.5C13.112 15.5 13.9386 15.1576 14.5481 14.5481C15.1576 13.9386 15.5 13.112 15.5 12.25C15.5 11.388 15.1576 10.5614 14.5481 9.9519C13.9386 9.34241 13.112 9 12.25 9ZM20.25 9C19.388 9 18.5614 9.34241 17.9519 9.9519C17.3424 10.5614 17 11.388 17 12.25C17 13.112 17.3424 13.9386 17.9519 14.5481C18.5614 15.1576 19.388 15.5 20.25 15.5C21.112 15.5 21.9386 15.1576 22.5481 14.5481C23.1576 13.9386 23.5 13.112 23.5 12.25C23.5 11.388 23.1576 10.5614 22.5481 9.9519C21.9386 9.34241 21.112 9 20.25 9Z" fill="current"/>
</svg>
