<svg width="16" height="16" viewBox="0 0 16 16" fill="current" xmlns="http://www.w3.org/2000/svg">
<g clip-path="url(#clip0_18_62)">
<path d="M8.00001 0.5C3.85801 0.5 0.500009 3.858 0.500009 8C0.498039 9.28188 0.826124 10.5427 1.45268 11.661C1.13834 12.493 0.843342 13.4537 0.650342 14.4133C0.623752 14.5405 0.62984 14.6723 0.668036 14.7965C0.706232 14.9207 0.775289 15.0331 0.868751 15.1234C0.962213 15.2136 1.07703 15.2786 1.20246 15.3125C1.3279 15.3463 1.45986 15.3477 1.58601 15.3167C2.50301 15.1017 3.43401 14.8033 4.25601 14.5C5.39425 15.157 6.68575 15.502 8.00001 15.5C12.142 15.5 15.5 12.142 15.5 8C15.5 3.858 12.142 0.5 8.00001 0.5Z" fill="current"/>
</g>
<defs>
<clipPath id="clip0_18_62">
<rect width="16" height="16" fill="current"/>
</clipPath>
</defs>
</svg>
