<svg width="16" height="16" viewBox="0 0 16 16" fill="none" xmlns="http://www.w3.org/2000/svg">
<g clip-path="url(#clip0_119_1691)">
<path fill-rule="evenodd" clip-rule="evenodd" d="M0.5 7.29467C0.5 3.54233 3.54067 0.5 7.29167 0.5C11.0427 0.5 14.083 3.54233 14.083 7.29467C14.083 8.61833 13.7047 9.854 13.05 10.8987C13.149 10.9813 13.2477 11.063 13.3463 11.1447L13.35 11.148C13.8947 11.5997 14.4353 12.048 14.9693 12.5433C15.6103 13.1377 15.699 14.0623 15.076 14.7067C14.9552 14.8317 14.8323 14.9548 14.7073 15.0757C14.0633 15.699 13.139 15.6107 12.545 14.969C12.0503 14.4347 11.602 13.8937 11.1507 13.3487L11.1487 13.346L10.9033 13.0503C9.82192 13.7313 8.56961 14.0917 7.29167 14.0897C3.54067 14.0897 0.5 11.0473 0.5 7.29467ZM7.33333 11.6667C9.72667 11.6667 11.6667 9.72667 11.6667 7.33333C11.6667 4.94 9.72667 3 7.33333 3C4.94 3 3 4.94 3 7.33333C3 9.72667 4.94 11.6667 7.33333 11.6667Z" fill="#C5C5C5"/>
</g>
<defs>
<clipPath id="clip0_119_1691">
<rect width="16" height="16" fill="white"/>
</clipPath>
</defs>
</svg>
