<svg width="16" height="16" viewBox="0 0 16 16" fill="current" xmlns="http://www.w3.org/2000/svg">
<g clip-path="url(#clip0_562_1974)">
<path fill-rule="evenodd" clip-rule="evenodd" d="M9.66504 1.46155C8.79541 0.32792 7.20441 0.32792 6.33477 1.46155C5.47764 2.57885 4.24337 4.38455 2.76037 7.11509C1.38831 9.64125 0.659674 11.3824 0.272241 12.5254C0.0565077 13.162 0.159908 13.7933 0.510441 14.2806C0.856741 14.762 1.41824 15.0687 2.06264 15.1292C3.39367 15.2544 5.42184 15.3885 7.99991 15.3885C10.578 15.3885 12.6061 15.2544 13.9372 15.1292C14.5816 15.0687 15.1431 14.762 15.4894 14.2806C15.8399 13.7933 15.9433 13.162 15.7276 12.5254C15.3401 11.3824 14.6115 9.64125 13.2394 7.11509C11.7564 4.38455 10.5221 2.57885 9.66504 1.46155ZM6.66364 5.88249C6.62774 5.41339 6.84661 4.95602 7.30621 4.85539C7.49787 4.81339 7.72914 4.78372 7.99991 4.78372C8.27071 4.78372 8.50197 4.81339 8.69364 4.85539C9.15324 4.95602 9.37211 5.41339 9.33621 5.88249C9.26951 6.75275 9.14937 8.17345 9.01917 9.00612C8.97094 9.31435 8.77897 9.57335 8.47047 9.61972C8.34501 9.63852 8.18974 9.65149 7.99991 9.65149C7.81011 9.65149 7.65484 9.63852 7.52937 9.61972C7.22087 9.57335 7.02891 9.31435 6.98067 9.00612C6.85047 8.17345 6.73034 6.75275 6.66364 5.88249ZM7.99991 13.1285C8.67201 13.1285 9.21687 12.5836 9.21687 11.9115C9.21687 11.2394 8.67201 10.6946 7.99991 10.6946C7.32781 10.6946 6.78297 11.2394 6.78297 11.9115C6.78297 12.5836 7.32781 13.1285 7.99991 13.1285Z" fill="current"/>
</g>
<defs>
<clipPath id="clip0_562_1974">
<rect width="16" height="16" fill="white"/>
</clipPath>
</defs>
</svg>
