<svg width="144" height="32" viewBox="0 0 144 32" fill="none" xmlns="http://www.w3.org/2000/svg">
<path d="M23.6334 1.21136C21.5634 1.54869 19.3107 2.36269 17.5354 4.13802C14.4607 7.21269 14.0967 12.0227 16.9114 14.9307C16.4127 15.9334 16.0014 16.9773 15.6821 18.0507C14.9554 16.7307 13.9974 15.4987 12.9841 14.404C12.8747 14.286 12.7641 14.1694 12.6527 14.0534C13.4454 11.9734 12.8654 9.43136 11.1027 7.66869C9.75608 6.32202 8.04675 5.72002 6.49875 5.47802C4.95008 5.23602 3.51475 5.34536 2.65208 5.46136C2.26537 5.51132 1.90611 5.68795 1.63039 5.96367C1.35468 6.23938 1.17804 6.59865 1.12808 6.98536C1.01208 7.84802 0.902746 9.28336 1.14475 10.832C1.38675 12.38 1.98808 14.0894 3.33541 15.436C5.18341 17.284 7.88808 17.832 10.0187 16.8614C8.69541 15.0587 7.10408 13.5867 6.06275 12.7967C5.94047 12.7041 5.84114 12.5846 5.77243 12.4475C5.70373 12.3103 5.66749 12.1592 5.66652 12.0058C5.66555 11.8524 5.69988 11.7009 5.76686 11.5629C5.83383 11.4249 5.93165 11.3042 6.05275 11.21C7.62408 12.2214 9.73341 13.8374 11.5161 15.7634C13.2654 17.652 14.5794 19.708 14.9161 21.6934C9.38875 21.9647 5.65608 24.2807 3.49341 26.1947C2.62741 26.9614 2.40275 28.05 2.78941 28.9834C3.16341 29.888 4.05541 30.52 5.14408 30.5974C7.77008 30.784 11.7294 31 16.0001 31C20.2707 31 24.2301 30.784 26.8561 30.5974C27.9447 30.52 28.8361 29.888 29.2107 28.984C29.5974 28.0507 29.3721 26.9614 28.5067 26.1947C26.3374 24.2747 22.5894 21.9514 17.0354 21.6907C17.2774 18.3507 18.7294 15.2914 20.5614 12.7514C22.3381 10.2874 24.4301 8.37136 25.9787 7.23602C26.0903 7.33028 26.1798 7.44781 26.241 7.58035C26.3023 7.7129 26.3337 7.85726 26.3332 8.00327C26.3327 8.14928 26.3003 8.29341 26.2381 8.42553C26.1759 8.55765 26.0856 8.67455 25.9734 8.76802C24.3947 10.084 21.8327 12.9674 20.1161 16.78C22.7181 17.438 25.7141 16.6134 27.8627 14.4647C29.6374 12.6894 30.4514 10.4367 30.7894 8.36669C31.1261 6.29669 30.9947 4.36269 30.8401 3.16269C30.7771 2.65337 30.5457 2.17969 30.1828 1.81687C29.8198 1.45404 29.3461 1.22286 28.8367 1.16002C27.6367 1.00536 25.7034 0.874024 23.6334 1.21136Z" fill="#258752"/>
<path d="M41.517 24.5V7.04545H48.4034C49.7273 7.04545 50.8551 7.2983 51.7869 7.80398C52.7188 8.30398 53.429 9 53.9176 9.89204C54.4119 10.7784 54.6591 11.8011 54.6591 12.9602C54.6591 14.1193 54.4091 15.142 53.9091 16.0284C53.4091 16.9148 52.6847 17.6051 51.7358 18.0994C50.7926 18.5937 49.6506 18.8409 48.3097 18.8409H43.9205V15.8835H47.7131C48.4233 15.8835 49.0085 15.7614 49.4688 15.517C49.9347 15.267 50.2813 14.9233 50.5085 14.4858C50.7415 14.0426 50.858 13.5341 50.858 12.9602C50.858 12.3807 50.7415 11.875 50.5085 11.4432C50.2813 11.0057 49.9347 10.6676 49.4688 10.429C49.0028 10.1847 48.4119 10.0625 47.696 10.0625H45.2074V24.5H41.517ZM60.6186 7.04545V24.5H56.9879V7.04545H60.6186ZM67.2599 24.7472C66.4247 24.7472 65.6804 24.6023 65.027 24.3125C64.3736 24.017 63.8565 23.5824 63.4759 23.0085C63.1009 22.429 62.9134 21.7074 62.9134 20.8438C62.9134 20.1165 63.0469 19.5057 63.3139 19.0114C63.581 18.517 63.9446 18.1193 64.4048 17.8182C64.8651 17.517 65.3878 17.2898 65.973 17.1364C66.5639 16.983 67.1832 16.875 67.831 16.8125C68.5923 16.733 69.206 16.6591 69.6719 16.5909C70.1378 16.517 70.4759 16.4091 70.6861 16.267C70.8963 16.125 71.0014 15.9148 71.0014 15.6364V15.5852C71.0014 15.0455 70.831 14.6278 70.4901 14.3324C70.1548 14.0369 69.6776 13.8892 69.0582 13.8892C68.4048 13.8892 67.8849 14.0341 67.4986 14.3239C67.1122 14.608 66.8565 14.9659 66.7315 15.3977L63.3736 15.125C63.544 14.3295 63.8793 13.642 64.3793 13.0625C64.8793 12.4773 65.5241 12.0284 66.3139 11.7159C67.1094 11.3977 68.0298 11.2386 69.0753 11.2386C69.8026 11.2386 70.4986 11.3239 71.1634 11.4943C71.8338 11.6648 72.4276 11.929 72.9446 12.2869C73.4673 12.6449 73.8793 13.1051 74.1804 13.6676C74.4815 14.2244 74.6321 14.892 74.6321 15.6705V24.5H71.1889V22.6847H71.0866C70.8764 23.0938 70.5952 23.4545 70.2429 23.767C69.8906 24.0739 69.4673 24.3153 68.973 24.4915C68.4787 24.6619 67.9077 24.7472 67.2599 24.7472ZM68.2997 22.2415C68.8338 22.2415 69.3054 22.1364 69.7145 21.9261C70.1236 21.7102 70.4446 21.4205 70.6776 21.0568C70.9105 20.6932 71.027 20.2812 71.027 19.821V18.4318C70.9134 18.5057 70.7571 18.5739 70.5582 18.6364C70.3651 18.6932 70.1463 18.7472 69.902 18.7983C69.6577 18.8437 69.4134 18.8864 69.169 18.9261C68.9247 18.9602 68.7031 18.9915 68.5043 19.0199C68.0781 19.0824 67.706 19.1818 67.3878 19.3182C67.0696 19.4545 66.8224 19.6392 66.6463 19.8722C66.4702 20.0994 66.3821 20.3835 66.3821 20.7244C66.3821 21.2188 66.5611 21.5966 66.919 21.858C67.2827 22.1136 67.7429 22.2415 68.2997 22.2415ZM81.0795 16.9318V24.5H77.4489V11.4091H80.9091V13.7188H81.0625C81.3523 12.9574 81.8381 12.3551 82.5199 11.9119C83.2017 11.4631 84.0284 11.2386 85 11.2386C85.9091 11.2386 86.7017 11.4375 87.3778 11.8352C88.054 12.233 88.5795 12.8011 88.9545 13.5398C89.3295 14.2727 89.517 15.1477 89.517 16.1648V24.5H85.8864V16.8125C85.892 16.0114 85.6875 15.3864 85.2727 14.9375C84.858 14.483 84.2869 14.2557 83.5597 14.2557C83.071 14.2557 82.6392 14.3608 82.2642 14.571C81.8949 14.7812 81.6051 15.0881 81.3949 15.4915C81.1903 15.8892 81.0852 16.3693 81.0795 16.9318ZM99.3416 11.4091V14.1364H91.4581V11.4091H99.3416ZM93.2479 8.27273H96.8786V20.4773C96.8786 20.8125 96.9297 21.0739 97.032 21.2614C97.1342 21.4432 97.2763 21.571 97.4581 21.6449C97.6456 21.7187 97.8615 21.7557 98.1058 21.7557C98.2763 21.7557 98.4467 21.7415 98.6172 21.7131C98.7876 21.679 98.9183 21.6534 99.0092 21.6364L99.5803 24.3381C99.3984 24.3949 99.1428 24.4602 98.8132 24.5341C98.4837 24.6136 98.0831 24.6619 97.6115 24.679C96.7365 24.7131 95.9695 24.5966 95.3104 24.3295C94.657 24.0625 94.1484 23.6477 93.7848 23.0852C93.4212 22.5227 93.2422 21.8125 93.2479 20.9545V8.27273ZM102.056 24.5V7.04545H105.746V21.4574H113.229V24.5H102.056ZM115.605 24.5V11.4091H119.236V24.5H115.605ZM117.429 9.72159C116.889 9.72159 116.426 9.54261 116.04 9.18466C115.659 8.82102 115.469 8.38636 115.469 7.88068C115.469 7.38068 115.659 6.9517 116.04 6.59375C116.426 6.23011 116.889 6.04829 117.429 6.04829C117.969 6.04829 118.429 6.23011 118.81 6.59375C119.196 6.9517 119.389 7.38068 119.389 7.88068C119.389 8.38636 119.196 8.82102 118.81 9.18466C118.429 9.54261 117.969 9.72159 117.429 9.72159ZM129.184 11.4091V14.1364H121.104V11.4091H129.184ZM122.954 24.5V10.4631C122.954 9.5142 123.138 8.72727 123.508 8.10227C123.883 7.47727 124.394 7.00852 125.042 6.69602C125.69 6.38352 126.425 6.22727 127.249 6.22727C127.806 6.22727 128.315 6.26989 128.775 6.35511C129.241 6.44034 129.587 6.51705 129.815 6.58523L129.167 9.3125C129.025 9.26705 128.849 9.22443 128.638 9.18466C128.434 9.14489 128.224 9.125 128.008 9.125C127.474 9.125 127.102 9.25 126.891 9.5C126.681 9.74432 126.576 10.0881 126.576 10.5312V24.5H122.954ZM136.899 24.7557C135.553 24.7557 134.393 24.483 133.422 23.9375C132.456 23.3864 131.712 22.608 131.189 21.6023C130.666 20.5909 130.405 19.3949 130.405 18.0142C130.405 16.6676 130.666 15.4858 131.189 14.4688C131.712 13.4517 132.447 12.6591 133.396 12.0909C134.351 11.5227 135.47 11.2386 136.754 11.2386C137.618 11.2386 138.422 11.3778 139.166 11.6562C139.916 11.929 140.57 12.3409 141.126 12.892C141.689 13.4432 142.126 14.1364 142.439 14.9716C142.751 15.8011 142.908 16.7727 142.908 17.8864V18.8835H131.854V16.6335H139.49C139.49 16.1108 139.376 15.6477 139.149 15.2443C138.922 14.8409 138.607 14.5256 138.203 14.2983C137.805 14.0653 137.342 13.9489 136.814 13.9489C136.263 13.9489 135.774 14.0767 135.348 14.3324C134.928 14.5824 134.598 14.9205 134.359 15.3466C134.121 15.767 133.999 16.2358 133.993 16.7528V18.892C133.993 19.5398 134.112 20.0994 134.351 20.571C134.595 21.0426 134.939 21.4062 135.382 21.6619C135.825 21.9176 136.351 22.0455 136.959 22.0455C137.362 22.0455 137.732 21.9886 138.067 21.875C138.402 21.7614 138.689 21.5909 138.928 21.3636C139.166 21.1364 139.348 20.858 139.473 20.5284L142.831 20.75C142.661 21.5568 142.311 22.2614 141.783 22.8636C141.26 23.4602 140.584 23.9261 139.754 24.2614C138.93 24.5909 137.979 24.7557 136.899 24.7557Z" fill="#152E21"/>
</svg>
