<svg width="100" height="100" viewBox="0 0 100 100" fill="none" xmlns="http://www.w3.org/2000/svg">
<path d="M60.8926 93.1874C60.6275 93.9828 60.1192 94.6748 59.4388 95.1647C58.7588 95.655 57.9419 95.919 57.1033 95.9186H42.8965C42.058 95.919 41.241 95.655 40.5609 95.1647C39.8808 94.6748 39.3722 93.9828 39.1073 93.1874L32.9063 74.5884C32.8062 74.2881 32.7791 73.9683 32.8269 73.6556C32.8748 73.3426 32.9964 73.0455 33.1817 72.7888C33.3669 72.5324 33.6105 72.3236 33.8924 72.1795C34.1743 72.0357 34.4864 71.9607 34.8029 71.9611H65.197C65.5136 71.9607 65.8255 72.0357 66.1074 72.1795C66.3893 72.3236 66.6328 72.5324 66.8181 72.7888C67.0034 73.0455 67.1252 73.3426 67.1731 73.6556C67.221 73.9683 67.1934 74.2881 67.0936 74.5884L60.8926 93.1874Z" fill="#E3BFB3"/>
<path d="M49.0018 84.8581C43.9668 84.9048 39.0396 83.3991 34.8909 80.5458L39.1074 93.1874C39.3723 93.9827 39.8809 94.6747 40.561 95.165C41.2411 95.655 42.0582 95.9189 42.8967 95.9185H57.1035C57.942 95.9189 58.7589 95.655 59.4393 95.165C60.1193 94.6747 60.628 93.9827 60.8927 93.1874L65.8879 78.2059C61.3639 82.575 55.2899 84.9675 49.0018 84.8581Z" fill="#C77F67"/>
<path d="M28.007 59.7107C23.5878 59.3673 19.4694 57.3393 16.5029 54.0456C13.5364 50.7522 11.9485 46.4451 12.0672 42.0141C12.0672 33.0301 18.0566 24.046 32.0318 24.046C32.0318 24.046 32.0318 4.08142 50 4.08142C67.9681 4.08142 67.9681 24.046 67.9681 24.046C81.9433 24.046 87.9327 32.0318 87.9327 42.0141C88.0624 46.3564 86.5443 50.5869 83.683 53.8555C80.8217 57.1241 76.8292 59.1889 72.508 59.6349L28.007 59.7107Z" fill="#C9F7CA"/>
<path d="M72.508 45.6397L28.007 45.7156C24.8239 45.4457 21.7774 44.3009 19.2045 42.4074C16.6317 40.5138 14.6328 37.9455 13.4288 34.9865C12.5321 37.2211 12.07 39.6063 12.0672 42.014C11.9485 46.4451 13.5364 50.7522 16.5029 54.0456C19.4694 57.3394 23.5878 59.3674 28.007 59.7108L72.508 59.6349C76.8292 59.1889 80.8217 57.1241 83.683 53.8555C86.5443 50.5865 88.0624 46.3564 87.9327 42.014C87.9542 39.5432 87.5266 37.089 86.6709 34.7709C85.5337 37.707 83.6111 40.2739 81.1132 42.1906C78.6152 44.1076 75.6385 45.3007 72.508 45.6397Z" fill="#78EB7B"/>
<path d="M28.007 59.7107C23.5878 59.3673 19.4694 57.3393 16.5029 54.0456C13.5364 50.7522 11.9485 46.4451 12.0672 42.0141C12.0672 33.0301 18.0566 24.046 32.0318 24.046C32.0318 24.046 32.0318 4.08142 50 4.08142C67.9681 4.08142 67.9681 24.046 67.9681 24.046C81.9433 24.046 87.9327 32.0318 87.9327 42.0141C88.0624 46.3564 86.5443 50.5869 83.683 53.8555C80.8217 57.1241 76.8292 59.1889 72.508 59.6349" stroke="#191919" stroke-width="4.17" stroke-linecap="round" stroke-linejoin="round"/>
<path d="M60.8926 93.1874C60.6275 93.9828 60.1192 94.6748 59.4388 95.1647C58.7588 95.655 57.9419 95.919 57.1033 95.9186H42.8965C42.058 95.919 41.241 95.655 40.5609 95.1647C39.8808 94.6748 39.3722 93.9828 39.1073 93.1874L32.9063 74.5884C32.8062 74.2881 32.7791 73.9683 32.8269 73.6556C32.8748 73.3426 32.9964 73.0455 33.1817 72.7888C33.3669 72.5324 33.6105 72.3236 33.8924 72.1795C34.1743 72.0357 34.4864 71.9607 34.8029 71.9611H65.197C65.5136 71.9607 65.8255 72.0357 66.1074 72.1795C66.3893 72.3236 66.6328 72.5324 66.8181 72.7888C67.0034 73.0455 67.1252 73.3426 67.1731 73.6556C67.221 73.9683 67.1934 74.2881 67.0936 74.5884L60.8926 93.1874Z" stroke="#191919" stroke-width="4.17" stroke-linecap="round" stroke-linejoin="round"/>
<path d="M49.0017 39.6943V71.6376" stroke="#191919" stroke-width="4.17" stroke-linecap="round" stroke-linejoin="round"/>
<path d="M33.03 43.6873C33.03 47.9233 34.7128 51.9857 37.708 54.9808C40.7033 57.9763 44.7656 59.6589 49.0017 59.6589" stroke="#191919" stroke-width="4.17" stroke-linecap="round" stroke-linejoin="round"/>
<path d="M49.0017 63.6518H50.9982C55.2343 63.6518 59.2966 61.9692 62.2917 58.9737C65.2872 55.9787 66.9698 51.9163 66.9698 47.6802" stroke="#191919" stroke-width="4.17" stroke-linecap="round" stroke-linejoin="round"/>
</svg>
