<svg width="25" height="24" viewBox="0 0 25 24" fill="none" xmlns="http://www.w3.org/2000/svg">
<g clip-path="url(#clip0_97_1244)">
<path fill-rule="evenodd" clip-rule="evenodd" d="M6.99543 7.503C6.6145 7.21542 6.33798 6.81123 6.208 6.35197C6.07803 5.89271 6.1017 5.40356 6.27543 4.959C6.71772 3.80186 7.58515 2.739 8.55543 1.91614C9.53601 1.08471 10.7634 0.378429 12.0714 0.0527143C12.3526 -0.0175714 12.6509 -0.0175714 12.9337 0.0527143C14.2366 0.378429 15.4657 1.08471 16.4463 1.91614C17.4166 2.739 18.284 3.80186 18.7263 4.959C19.1034 5.94814 18.7366 6.94757 18.0063 7.503C17.3497 8.00357 16.4806 8.103 15.7297 7.81329C15.2356 7.62316 14.7293 7.46624 14.2143 7.34357V14.5384C14.2143 14.9931 14.0337 15.4291 13.7122 15.7506C13.3907 16.0721 12.9547 16.2527 12.5 16.2527C12.0453 16.2527 11.6093 16.0721 11.2878 15.7506C10.9663 15.4291 10.7857 14.9931 10.7857 14.5384V7.34357C10.2714 7.46671 9.76571 7.62362 9.27201 7.81329C8.89761 7.95966 8.49207 8.00814 8.09371 7.95415C7.69536 7.90015 7.31736 7.74547 6.99543 7.50471V7.503ZM3.92686 17.4801C3.92686 17.0255 3.74625 16.5895 3.42476 16.268C3.10327 15.9465 2.66723 15.7659 2.21258 15.7659C1.75792 15.7659 1.32188 15.9465 1.00039 16.268C0.678903 16.5895 0.498291 17.0255 0.498291 17.4801V18.9116C0.498291 20.1836 1.05886 21.363 1.98972 22.2047C2.92207 23.0351 4.12864 23.4912 5.37715 23.4853H19.6229C20.8623 23.4853 22.0846 23.0396 23.0086 22.2047C23.9411 21.3647 24.5 20.1836 24.5 18.9116V17.4819C24.5 17.0272 24.3194 16.5912 23.9979 16.2697C23.6764 15.9482 23.2404 15.7676 22.7857 15.7676C22.3311 15.7676 21.895 15.9482 21.5735 16.2697C21.252 16.5912 21.0714 17.0272 21.0714 17.4819V18.9116C21.0677 19.0548 21.0337 19.1956 20.9716 19.3247C20.9096 19.4538 20.8209 19.5683 20.7114 19.6607C20.409 19.9208 20.0217 20.061 19.6229 20.055H5.37715C4.97833 20.0609 4.59114 19.9206 4.28858 19.6607C4.17878 19.5685 4.08978 19.454 4.02743 19.3249C3.96508 19.1958 3.93081 19.0549 3.92686 18.9116V17.4819V17.4801Z" fill="#333333"/>
</g>
<defs>
<clipPath id="clip0_97_1244">
<rect width="24" height="24" fill="white" transform="translate(0.5)"/>
</clipPath>
</defs>
</svg>
